<svg width="92" height="98" viewBox="0 0 92 98" fill="none" xmlns="http://www.w3.org/2000/svg">
<g filter="url(#filter0_d_3155_107)">
<path d="M62.0802 88.4773C55.5741 88.4245 45.8111 88.1682 36.2065 87.2635C29.5948 86.6377 22.7645 85.6501 17.5777 82.71C16.1151 81.8807 14.5169 81.6771 13.0996 81.5037C12.4964 81.4283 11.931 81.3605 11.4485 81.2474C7.76951 80.3804 5.19873 77.199 5.18365 73.5124L5.13088 48.8223C5.12334 45.4072 7.55842 42.5499 10.9283 42.0222C10.9886 42.0146 11.0414 41.9996 11.1017 41.9845C11.5164 41.8488 21.4226 38.6221 28.8861 32.787C32.3993 30.0428 35.4073 25.8134 36.9377 21.4785C38.4606 17.1587 38.4531 12.4468 38.4455 8.66228C38.4455 6.21966 38.438 3.18146 39.1014 2.73666C40.7148 1.67366 42.494 1.13086 44.3862 1.13086C50.2063 1.13086 56.147 6.44583 56.3807 11.8588C56.5466 15.6132 55.2876 20.0461 54.0738 24.3282C52.6414 29.402 51.3975 33.7821 52.5208 36.76C52.6866 37.2048 53.1088 37.4913 53.5762 37.4913L59.0721 37.3028H59.1249C65.2767 37.3028 70.2826 42.3087 70.2901 48.4529L70.3278 80.2749C70.3278 82.4687 69.4834 84.5268 67.9304 86.0723C67.171 86.8365 66.2676 87.4425 65.2725 87.8553C64.2774 88.2681 63.2103 88.4795 62.133 88.4773H62.0802Z" fill="url(#paint0_radial_3155_107)"/>
<path d="M44.3862 2.26169C49.558 2.26169 55.0388 7.13186 55.2499 11.904C55.4082 15.4775 54.1793 19.8199 52.9882 24.0191C51.4955 29.2813 50.2138 33.8273 51.4653 37.152C51.6276 37.5824 51.9174 37.953 52.296 38.2143C52.6745 38.4757 53.1238 38.6153 53.5838 38.6146H53.6667L59.0947 38.4261H59.14C64.666 38.4261 69.1668 42.9193 69.1743 48.4529L69.212 80.2749C69.212 82.1596 68.4807 83.9388 67.1463 85.2732C65.812 86.6076 64.0403 87.3464 62.148 87.3464H62.0877C55.6042 87.2936 45.8714 87.0373 36.312 86.1402C29.8285 85.5295 23.1339 84.5645 18.1356 81.7299C16.477 80.7875 14.6827 80.5689 13.2428 80.3879C12.6698 80.3201 12.1346 80.2522 11.7124 80.1467C8.54601 79.4003 6.32955 76.6712 6.32202 73.5124L6.2617 48.8223C6.25416 45.9726 8.28968 43.5827 11.1017 43.1455C11.2148 43.1304 11.3354 43.1002 11.441 43.0625C11.8632 42.9268 21.9503 39.6323 29.5722 33.6765C33.2436 30.8042 36.3949 26.3864 37.9932 21.8554C39.5839 17.3547 39.5764 12.5373 39.5688 8.66227C39.5688 6.82276 39.5613 4.3349 39.8779 3.58101C41.2216 2.71473 42.7875 2.25647 44.3862 2.26169ZM44.3862 0C42.3884 0 40.368 0.542805 38.4757 1.79427C36.0331 3.40761 38.6792 13.1178 35.8672 21.094C34.1785 25.8813 30.9593 29.7261 28.185 31.8898C20.7968 37.6646 10.7549 40.9064 10.7549 40.9064C6.85728 41.5171 3.99248 44.8794 4.00001 48.8298L4.06033 73.5199C4.07541 77.7719 7.05329 81.368 11.1922 82.3481C12.8658 82.7401 15.1501 82.6346 17.0198 83.6975C22.0181 86.5322 28.4262 87.663 36.1009 88.3868C45.6 89.2839 55.2499 89.5478 62.0726 89.6081H62.148C67.2971 89.6081 71.4813 85.4315 71.4737 80.2749L71.436 48.4529C71.4285 41.6603 65.9175 36.1719 59.14 36.1719H59.0495L53.5913 36.3604C51.7066 31.3545 57.881 20.0913 57.5191 11.806C57.2552 5.91808 50.9753 0 44.3862 0Z" fill="#EDA600"/>
<path d="M47.4546 43.8686C48.872 47.6381 48.887 53.5185 47.4546 57.1523C45.3814 62.3994 40.3077 66.9906 34.4499 67.7973C33.0175 67.9933 33.8694 69.3126 35.2943 69.1166C41.6346 68.2421 50.2139 65.6713 52.4454 59.9794C58.5671 44.3361 51.405 36.1412 48.2085 38.5838C46.6706 39.775 46.6555 41.7351 47.4546 43.8686Z" fill="#EDA600"/>
<path d="M62.6531 49.4633C56.3505 49.4633 48.7738 48.2948 48.4497 42.7084C48.3592 41.1101 48.8417 39.7682 49.9273 38.6147C52.7846 35.5841 59.8033 33.918 69.6945 33.918C73.283 33.918 75.899 34.1517 75.9292 34.1517C75.9593 34.1517 75.997 34.1592 76.0272 34.1592H76.095C76.2006 34.1517 76.2986 34.1517 76.4041 34.1517C79.6082 34.1517 82.2845 37.0391 82.5031 40.7257C82.7293 44.5404 80.2188 47.7972 76.9092 47.9857C76.8565 47.9857 76.7962 47.9932 76.7434 48.0083C76.6755 48.0158 69.6945 49.4633 62.6531 49.4633Z" fill="url(#paint1_radial_3155_107)"/>
<path d="M69.7019 35.0488C73.2301 35.0488 75.8084 35.275 75.8311 35.275C75.8989 35.2825 75.9668 35.2825 76.0346 35.2825C76.0798 35.2825 76.1251 35.2825 76.1628 35.275C76.2457 35.2674 76.3286 35.2674 76.404 35.2674C79.005 35.2674 81.1913 37.6874 81.3722 40.7709C81.4627 42.3691 81.0103 43.8845 80.0981 45.0455C79.2462 46.1311 78.0852 46.7643 76.8413 46.8397C76.7282 46.8473 76.6151 46.8623 76.5096 46.885C76.4417 46.9 69.5586 48.3249 62.653 48.3249C58.6422 48.3249 55.4608 47.8575 53.2066 46.9377C50.1081 45.6712 49.6483 43.8769 49.5804 42.6405C49.505 41.3514 49.882 40.3185 50.7565 39.3837C53.3574 36.632 60.2631 35.0488 69.7019 35.0488ZM69.7019 32.7871C61.0924 32.7871 46.8136 34.0913 47.3187 42.7762C47.6881 49.0486 55.2572 50.5941 62.653 50.5941C69.8979 50.5941 76.977 49.109 76.977 49.109C80.9123 48.8752 83.8977 45.0907 83.6339 40.6502C83.3851 36.353 80.1886 33.0133 76.4116 33.0133C76.2834 33.0133 76.1628 33.0133 76.0346 33.0208C76.0346 33.0208 73.3884 32.7871 69.7019 32.7871Z" fill="#EDA600"/>
<path d="M67.3799 63.8094C59.1549 63.8094 49.3542 62.4298 49.3542 55.8408C49.3542 49.2517 59.1549 47.8721 67.3799 47.8721C74.3534 47.8721 80.7088 48.8898 80.7691 48.8974C80.8294 48.9049 80.8897 48.9125 80.95 48.9125C84.2747 48.9125 86.5892 52.4256 86.5892 55.5769C86.5892 58.9016 84.1239 62.7615 80.95 62.7615C80.8897 62.7615 80.8294 62.7691 80.7691 62.7766C80.7012 62.7917 74.3459 63.8094 67.3799 63.8094Z" fill="url(#paint2_radial_3155_107)"/>
<path d="M67.3799 49.0107C74.2554 49.0107 80.5278 50.0134 80.5881 50.0209C80.7088 50.0436 80.8294 50.0511 80.95 50.0511C83.5283 50.0511 85.4583 52.9762 85.4583 55.5847C85.4583 58.3063 83.3776 61.6385 80.95 61.6385C80.8294 61.6385 80.7088 61.646 80.5881 61.6686C80.5278 61.6762 74.2479 62.6788 67.3799 62.6788C62.2308 62.6788 58.1371 62.136 55.2045 61.058C50.9751 59.5049 50.4851 57.3337 50.4851 55.841C50.4851 54.3408 50.9751 52.1771 55.2045 50.624C58.1296 49.5535 62.2308 49.0107 67.3799 49.0107ZM67.3799 46.749C58.3859 46.749 48.2234 48.4001 48.2234 55.8485C48.2234 63.297 58.3784 64.9481 67.3799 64.9481C74.5344 64.9481 80.95 63.9077 80.95 63.9077C84.8401 63.9077 87.72 59.4522 87.72 55.5922C87.72 51.7323 84.8401 47.7969 80.95 47.7969C80.95 47.7894 74.5268 46.749 67.3799 46.749Z" fill="#EDA600"/>
<path d="M73.6449 88.8688C70.471 88.8688 54.3904 88.62 49.5202 83.7423C48.6683 82.8904 48.2612 81.9707 48.2612 80.9303C48.2763 76.9724 55.0538 74.7031 66.8523 74.7031C71.059 74.7031 74.3159 75.0047 74.3536 75.0047C74.3837 75.0047 74.4214 75.0122 74.4516 75.0122C76.2157 75.0198 77.8818 75.736 79.1257 77.0402C80.3847 78.352 81.0708 80.101 81.0708 81.9556C81.0557 85.7628 78.0778 88.8538 74.429 88.8538C74.3762 88.8688 74.1123 88.8688 73.6449 88.8688Z" fill="url(#paint3_radial_3155_107)"/>
<path d="M66.8599 75.8418C70.9988 75.8418 74.2179 76.1358 74.2481 76.1433C74.3159 76.1509 74.3838 76.1509 74.4516 76.1509C75.9066 76.1584 77.2787 76.754 78.3116 77.8321C79.367 78.9327 79.9475 80.4028 79.94 81.9634C79.9325 85.1448 77.4597 87.7382 74.4064 87.7382H74.3536C74.3385 87.7382 74.0822 87.7458 73.6374 87.7458C59.9542 87.7458 52.5208 85.1599 50.3119 82.951C49.4751 82.1142 49.3846 81.4055 49.3846 80.9456C49.4072 77.7944 56.0943 75.8418 66.8599 75.8418ZM66.8599 73.5801C58.7781 73.5801 47.153 74.6657 47.138 80.9306C47.1078 89.5702 69.2271 89.9999 73.645 89.9999C74.135 89.9999 74.4064 89.9924 74.4064 89.9924H74.429C78.7111 89.9924 82.1866 86.4038 82.2017 81.9634C82.2168 77.5154 78.7488 73.8967 74.4592 73.8816C74.4592 73.8892 71.1646 73.5801 66.8599 73.5801Z" fill="#EDA600"/>
<path d="M70.8255 76.9046C64.0479 76.9046 48.2915 76.1356 48.2915 69.0113C48.2915 63.0253 59.6527 62.1357 66.4302 62.1357C72.4237 62.1357 77.5879 62.7992 77.6407 62.8067C77.6859 62.8142 77.7387 62.8142 77.7839 62.8142C80.9277 62.8142 84.5916 64.3673 84.5916 68.7474C84.5916 72.8938 81.3498 76.6633 77.7839 76.6633H77.6935C77.6633 76.6709 74.7608 76.9046 70.8255 76.9046Z" fill="url(#paint4_radial_3155_107)"/>
<path d="M66.4301 61.0127V63.2744C72.3331 63.2744 77.4445 63.9303 77.4897 63.9378C77.5877 63.9529 77.6857 63.9529 77.7837 63.9529C80.5279 63.9529 83.4606 65.2119 83.4606 68.7552C83.4606 72.2457 80.7013 75.5403 77.7837 75.5403C77.7234 75.5403 77.6631 75.5403 77.5953 75.5478C77.5651 75.5478 74.7079 75.7815 70.8177 75.7815C66.709 75.7815 60.8362 75.5177 56.1846 74.2813C51.6989 73.0826 49.4222 71.3109 49.4222 69.0266C49.4222 68.3255 49.4222 66.192 54.2019 64.6917C57.1798 63.7569 61.2885 63.2819 66.4225 63.2819L66.4301 61.0127ZM66.4301 61.0127C57.715 61.0127 47.1605 62.3848 47.1605 69.0191C47.1605 76.837 61.7861 78.0432 70.8253 78.0432C74.8662 78.0432 77.7837 77.802 77.7837 77.802C82.0357 77.802 85.7223 73.4067 85.7223 68.7552C85.7223 64.1037 82.0357 61.6912 77.7837 61.6912C77.7837 61.6912 72.5592 61.0127 66.4301 61.0127ZM18.5577 83.3733L14.9465 69.1246L13.4387 81.9409L18.5577 83.3733Z" fill="#EDA600"/>
</g>
<defs>
<filter id="filter0_d_3155_107" x="0" y="0" width="91.72" height="98" filterUnits="userSpaceOnUse" color-interpolation-filters="sRGB">
<feFlood flood-opacity="0" result="BackgroundImageFix"/>
<feColorMatrix in="SourceAlpha" type="matrix" values="0 0 0 0 0 0 0 0 0 0 0 0 0 0 0 0 0 0 127 0" result="hardAlpha"/>
<feOffset dy="4"/>
<feGaussianBlur stdDeviation="2"/>
<feComposite in2="hardAlpha" operator="out"/>
<feColorMatrix type="matrix" values="0 0 0 0 0 0 0 0 0 0 0 0 0 0 0 0 0 0 0.25 0"/>
<feBlend mode="normal" in2="BackgroundImageFix" result="effect1_dropShadow_3155_107"/>
<feBlend mode="normal" in="SourceGraphic" in2="effect1_dropShadow_3155_107" result="shape"/>
</filter>
<radialGradient id="paint0_radial_3155_107" cx="0" cy="0" r="1" gradientUnits="userSpaceOnUse" gradientTransform="translate(36.6355 20.4238) rotate(90.1249) scale(65.6185 51.6615)">
<stop offset="0.6" stop-color="#FFCA28"/>
<stop offset="1" stop-color="#FFB300"/>
</radialGradient>
<radialGradient id="paint1_radial_3155_107" cx="0" cy="0" r="1" gradientUnits="userSpaceOnUse" gradientTransform="translate(75.2223 41.0327) rotate(176.727) scale(21.3139 10.4292)">
<stop offset="0.599" stop-color="#FFCA28"/>
<stop offset="1" stop-color="#FFB300"/>
</radialGradient>
<radialGradient id="paint2_radial_3155_107" cx="0" cy="0" r="1" gradientUnits="userSpaceOnUse" gradientTransform="translate(78.5896 55.6519) rotate(-179.937) scale(23.9876 9.61941)">
<stop offset="0.599" stop-color="#FFCA28"/>
<stop offset="1" stop-color="#FFB300"/>
</radialGradient>
<radialGradient id="paint3_radial_3155_107" cx="0" cy="0" r="1" gradientUnits="userSpaceOnUse" gradientTransform="translate(73.9115 81.635) rotate(-179.726) scale(20.145 10.488)">
<stop offset="0.599" stop-color="#FFCA28"/>
<stop offset="1" stop-color="#FFB300"/>
</radialGradient>
<radialGradient id="paint4_radial_3155_107" cx="0" cy="0" r="1" gradientUnits="userSpaceOnUse" gradientTransform="translate(76.7816 69.3503) rotate(-179.934) scale(22.9515 9.54657)">
<stop offset="0.599" stop-color="#FFCA28"/>
<stop offset="1" stop-color="#FFB300"/>
</radialGradient>
</defs>
</svg>
