<svg width="37" height="33" viewBox="0 0 37 33" fill="none" xmlns="http://www.w3.org/2000/svg">
<path d="M8.59961 5.3H12.7246L14.3746 2H22.6246L24.2746 5.3H28.3996V18.5H8.59961V5.3Z" stroke="white" stroke-width="3.3" stroke-linecap="round" stroke-linejoin="round"/>
<path d="M18.5002 14.3754C20.3227 14.3754 21.8002 12.8979 21.8002 11.0754C21.8002 9.25285 20.3227 7.77539 18.5002 7.77539C16.6777 7.77539 15.2002 9.25285 15.2002 11.0754C15.2002 12.8979 16.6777 14.3754 18.5002 14.3754Z" stroke="white" stroke-width="3.3" stroke-linecap="round" stroke-linejoin="round"/>
<path d="M18.5 27.5754C9.38705 27.5754 2 23.8819 2 19.3254C2 18.1522 2.49005 17.036 3.3728 16.0254M18.5 27.5754L15.2 24.2754M18.5 27.5754L15.2 30.8754M25.1 26.889C30.9278 25.616 35 22.7079 35 19.3254C35 18.1522 34.5099 17.036 33.6272 16.0254" stroke="white" stroke-width="3.3" stroke-linecap="round" stroke-linejoin="round"/>
</svg>
